<svg id="Capa_1" enable-background="new 0 0 512 512" height="512" viewBox="0 0 512 512" width="512" xmlns="http://www.w3.org/2000/svg"><g><path d="m497 30h-482c-8.284 0-15 6.716-15 15v422c0 8.284 6.716 15 15 15h482c8.284 0 15-6.716 15-15v-422c0-8.284-6.716-15-15-15zm-467 30h30v392h-30zm452 392h-392v-392h392z"/><path d="m285.5 420.5c90.981 0 165-74.019 165-165s-74.019-165-165-165-165 74.019-165 165 74.019 165 165 165zm0-300c74.439 0 135 60.561 135 135s-60.561 135-135 135-135-60.561-135-135 60.561-135 135-135z"/><path d="m196.676 234.581c7.669 3.218 16.442-.418 19.636-8.026 5.208-12.408 13.708-23.236 24.583-31.313 6.65-4.94 8.037-14.336 3.097-20.986-4.939-6.651-14.336-8.036-20.985-3.097-15.188 11.283-27.069 26.423-34.356 43.786-3.208 7.638.386 16.43 8.025 19.636z"/><path d="m354.764 284.262c-4.998 12-13.114 22.575-23.469 30.581-6.554 5.067-7.759 14.488-2.692 21.042 5.075 6.564 14.499 7.751 21.042 2.692 14.469-11.187 25.815-25.979 32.813-42.779 3.186-7.647-.432-16.429-8.079-19.614-7.648-3.187-16.429.43-19.615 8.078z"/><path d="m220 289c0 24.813 20.187 45 45 45s45-20.187 45-45v-81.109c13.316 3.99 24.237 14.253 28.77 27.852 2.62 7.859 11.116 12.107 18.975 9.486 7.858-2.62 12.105-11.115 9.486-18.974-9.774-29.32-37.1-49.479-67.996-50.166-9.896-.218 1.356.053-4.241-.091-8.336 0-14.993 6.832-14.993 15v55.58c-29.24-10.367-60.001 11.459-60.001 42.422zm60 0c0 8.271-6.729 15-15 15s-15-6.729-15-15 6.729-15 15-15 15 6.729 15 15z"/></g></svg>